<?xml version="1.0" encoding="utf-8"?>
<!-- Generator: Adobe Illustrator 22.1.0, SVG Export Plug-In . SVG Version: 6.00 Build 0)  -->
<svg version="1.1" id="Layer_1" xmlns="http://www.w3.org/2000/svg" xmlns:xlink="http://www.w3.org/1999/xlink" x="0px" y="0px"
	 viewBox="0 0 257.7 343.3" style="enable-background:new 0 0 257.7 343.3;" xml:space="preserve">
<style type="text/css">
	.st0{fill:#DB8035;}
</style>
<path class="st0" d="M229.9,124.4c-2.3-53.8-46.7-96.8-101.1-96.8c-54.4,0-98.8,42.9-101.1,96.8c-3.4,24.5,5.8,45.8,6.9,51.9
	c1.1,6,8.9,24.2,9.3,32c0.3,6.8,1.4,17.1,9.5,18.8c2.5,0.5,4.5,2.6,4.9,5.2c3,18.6,7.7,47.6,7.7,51.5c0,4.3,2.1,9.3,7.8,11.7
	c5.7,2.5,15.6,8.8,23.5,13.9c5,3.2,17.9,8.9,31.6,5c13.6,3.9,26.6-1.8,31.6-5c7.9-5.1,17.8-11.4,23.5-13.9c5.7-2.5,7.8-7.5,7.8-11.7
	c0-3.9,4.7-32.9,7.7-51.5c0.4-2.6,2.3-4.7,4.9-5.2c8-1.6,9.1-11.9,9.5-18.8c0.4-7.8,8.2-26,9.3-32
	C224.1,170.2,233.3,148.9,229.9,124.4z M172.9,61.3c0-0.6,0.7-1,1.2-0.7L189.6,71c0.3,0.2,0.4,0.5,0.3,0.8l-3.4,14.8
	c-0.1,0.5-0.8,0.8-1.2,0.5l-12.1-8.7c-0.2-0.1-0.3-0.4-0.3-0.6V61.3z M191.8,97.4c0,3.7-3,6.8-6.8,6.8s-6.8-3-6.8-6.8
	c0-3.7,3-6.8,6.8-6.8S191.8,93.7,191.8,97.4z M159.7,95.9l7.5-7.5c0.3-0.3,0.8-0.3,1.1,0l6.1,5.8c0.3,0.3,0.3,0.7,0.1,1.1l-4.6,5.8
	c-0.2,0.3-0.6,0.4-0.9,0.2l-9-4.1C159.4,96.9,159.3,96.3,159.7,95.9z M162.6,111.3c0.1-0.3,0.3-0.4,0.6-0.5l17.3-3.9
	c0.5-0.1,1,0.3,1,0.8l-0.4,13.2c0,0.4-0.3,0.7-0.7,0.8l-21.2,3c-0.6,0.1-1.1-0.5-0.9-1L162.6,111.3z M119.5,50.4l8.5-11.7
	c0.4-0.5,1.2-0.5,1.6,0l8.5,11.7c0.3,0.4,0.2,1-0.1,1.3l-8.5,8.1c-0.4,0.4-1,0.4-1.4,0l-8.5-8.1C119.3,51.4,119.2,50.8,119.5,50.4z
	 M104.4,64.7c9.3-6,18.4,0.3,23.5,8.5c0.5,0.7,1.5,0.7,2,0c5-8.2,14.1-14.5,23.5-8.5c9.9,6.3,6.4,26.2-23.6,43.4
	c-0.5,0.3-1.1,0.3-1.6,0C97.9,90.9,94.5,71,104.4,64.7z M128.8,171.8c3.5-0.2,6.3-1.9,10.6,11.9c4.3,13.9,13.2,19.7,8.5,28.8
	c-3.9,7.7-11.5,8.5-16.6,4.7c-1.5-1.1-3.6-1.1-5.1,0c-5.1,3.8-12.7,3-16.6-4.7c-4.6-9.1,4.3-14.9,8.5-28.8
	C122.5,169.9,125.3,171.6,128.8,171.8z M120.4,130.8l7.6-10.3c0.4-0.5,1.2-0.5,1.6,0l7.6,10.3c0.2,0.3,0.3,0.7,0.1,1.1l-7.6,14.6
	c-0.4,0.7-1.4,0.7-1.8,0l-7.6-14.6C120.2,131.5,120.2,131.1,120.4,130.8z M98.6,124.7l-21.2-3c-0.4-0.1-0.7-0.4-0.7-0.8l-0.4-13.2
	c0-0.5,0.5-0.9,1-0.8l17.3,3.9c0.3,0.1,0.5,0.3,0.6,0.5l4.4,12.3C99.6,124.2,99.2,124.8,98.6,124.7z M90.5,88.4l7.5,7.5
	c0.4,0.4,0.3,1-0.2,1.3l-9,4.1c-0.3,0.2-0.7,0.1-0.9-0.2l-4.6-5.8c-0.3-0.3-0.2-0.8,0.1-1.1l6.1-5.8C89.7,88.1,90.2,88.1,90.5,88.4z
	 M68.1,71l15.5-10.4c0.5-0.4,1.2,0,1.2,0.7v16.5c0,0.3-0.1,0.5-0.3,0.6l-12.1,8.7c-0.5,0.3-1.1,0.1-1.2-0.5l-3.4-14.8
	C67.7,71.5,67.8,71.2,68.1,71z M72.6,90.6c3.7,0,6.8,3,6.8,6.8c0,3.7-3,6.8-6.8,6.8c-3.7,0-6.8-3-6.8-6.8
	C65.9,93.7,68.9,90.6,72.6,90.6z M47.3,90.5l10.6-6.8c0.5-0.3,1.1,0,1.2,0.5l2.2,12.9c0.1,0.3-0.1,0.6-0.4,0.8l-10.1,6
	c-0.5,0.3-1.1,0-1.2-0.5l-2.7-12.1C46.9,91,47,90.7,47.3,90.5z M47.8,133.2v-17.1c0-0.3,0.2-0.6,0.5-0.7l15.5-5.7
	c0.5-0.2,1,0.2,1.1,0.7l0.9,12.2c0,0.3-0.1,0.6-0.4,0.7l-16.4,10.6C48.5,134.2,47.8,133.8,47.8,133.2z M60.3,181.6
	c-5.2-3.8-6.6-15.2-8.1-21.8c-1.4-6.6,1.7-13.8,5.7-17.1c4-3.3,12.6-7.4,25.6-9.3c13-1.9,22.1-1.1,24,8.1c1.4,7.1,1,22.3-1.4,27.8
	c-2.4,5.5-17.1,13.8-26.4,16.4C70.3,188.3,65.5,185.4,60.3,181.6z M99.5,244.7c-0.2,1.5-0.9,2.9-0.8,4.3c0.1,1.9-2.4,2.2-3.3,0.9
	c-0.2-0.3-0.6-0.5-1-0.4c-1.1,0.1-2.4-0.8-2.1-2.2c0.7-2.9,1.2-5.4,3.8-7.3c0.6-0.4,1.7-0.2,2.2,0.3C99.4,241.6,99.8,243,99.5,244.7
	z M89.8,191.9l-6.4,14.3c-0.2,0.5-0.9,0.7-1.3,0.4l-12.3-8.5c-0.6-0.4-0.5-1.4,0.2-1.6l18.7-5.8C89.5,190.5,90.1,191.2,89.8,191.9z
	 M72.5,242.8c-3.2-10-5.7-21.9-4.6-31.3c13,5.7,16,8.9,16.5,15.1c0.5,6.2,3.7,11,2.8,14.6s-3.6,6.9-1.2,9.3c0.3,0.3,0.7,0.6,1.2,1
	c0.2,0.1,0.6,0.4,0.3,1.3c-0.7,2.7-0.7,5.6-0.5,8.5c0,0.5-0.6,0.9-0.9,0.7c-0.7-0.6-1.3-1.1-1.7-1.4C82.3,259,75.7,252.8,72.5,242.8
	z M97.7,291.1l-12.4-2.6c-0.3-0.1-0.6-0.3-0.7-0.6l-6.1-18.1c-0.3-0.8,0.6-1.5,1.3-1.1l12.2,7.2c0.2,0.1,0.3,0.2,0.4,0.4l6.3,13.6
	C99,290.5,98.4,291.2,97.7,291.1z M98.9,269.9c-2.7-1-5.3-2.5-7.5-4c-0.2-0.2-0.4-0.4-0.4-0.7c-0.2-1.7-0.4-3.3-0.4-5
	c0-1.5,0-3.4,0.2-5.2c0.1-0.6,0.8-1,1.4-0.7c1.7,0.8,3.6,1.6,5.4,2.2c0.4,0.1,0.6,0.5,0.7,0.8c0.2,2.4,0.8,4.9,1.2,7.3
	c0.2,1.4,0.5,2.7,0.7,4.1C100.3,269.6,99.6,270.2,98.9,269.9z M110.7,270.1c0,0.5-0.4,0.9-0.8,0.9c-1.6,0.2-3.1,0.3-5,0.2
	c-0.4,0-0.8-0.4-0.8-0.8c-0.3-1.5-0.6-2.9-0.8-4.4c-0.4-2.6-1.3-5.6-1.5-8.4c0.1,0,0.1,0,0.2,0c1.7,0.2,4.5,0.2,7.7,0.3
	c0.5,0,0.9,0.4,0.9,0.9c0.1,2.8,0.2,5.5,0.2,8.3C110.7,268,110.7,269,110.7,270.1z M110.9,252c-0.2,0.1-0.4,0.3-0.6,0.4
	c-0.5,0.2-1.2,0.3-1.7,0c-0.2-0.1-0.4-0.1-0.6-0.1c-0.2,0-0.3,0-0.5,0c-0.3,0-0.6,0-0.9,0.2c-1.2,0.7-3.2-0.9-2.4-2.6
	c1.3-2.8,0-8.4,4.3-9.1c0.5-0.1,1,0,1.4,0.3c0.3,0,0.6,0.1,0.9,0.2c3.1,1.7,2.9,6.4,3,9.4C113.8,252.4,111.9,252.9,110.9,252z
	 M122.5,266.2c-0.1,0.8-0.2,1.7-0.3,2.7c-0.1,0.5-0.4,0.8-0.9,0.8c-2.4,0.1-4.4,0.3-6,0.5c-0.6,0.1-1.1-0.4-1.1-1
	c0-1.2,0.1-2.4,0.1-3.4c0-2.3,0-4.7-0.1-7c0-0.5,0.4-1,0.9-1c2.4,0,4.8-0.1,7-0.1c0.5,0,1,0.4,1,1
	C123,261.2,122.8,263.7,122.5,266.2z M124.6,253.6c-0.3-0.2-0.7-0.3-1.1-0.2c-0.6,0.2-1.2,0.1-1.8-0.4c-0.1-0.1-0.1-0.1-0.1-0.2
	c-1.1,0.5-2.7,0-2.5-1.5c0.4-3-0.3-6,2-8.4c0.3-0.3,0.8-0.5,1.3-0.5c0.7-0.4,1.7-0.3,2.2,0.3c2.4,2.4,2.2,6,2.8,9.1
	C127.7,253.5,125.7,254.4,124.6,253.6z M133.2,269.6c-1.3,0-2.8-0.1-4.4-0.1c-0.7,0-1.3,0-1.9,0c-0.6,0-1-0.5-1-1
	c0.1-1.2,0.2-2.4,0.3-3.5c0.2-2.1,0.4-4.3,0.4-6.4c0-0.5,0.4-0.9,0.9-0.9c0.5,0,0.9,0,1.2,0c0,0,0,0,0.1,0c1,0,2.4,0.1,4.2,0.1
	c0.5,0,0.9,0.4,0.9,1c0,3.3,0.1,6.6,0.2,9.9C134.2,269.1,133.8,269.6,133.2,269.6z M134.9,253.5c-0.3-0.1-0.6-0.2-0.9-0.1
	c-1.1,0.4-2.7-0.6-2.5-2.2c-0.1,0.3,0,0.1,0-0.3c0-0.3,0.1-0.6,0.1-0.9c0.1-0.8,0.2-1.6,0.3-2.4c0.2-1.4,0.5-3,1.5-4.1
	c1.4-1.4,3.2-0.6,4.2,0.8c0.7,1.1,0.8,2.3,1.1,3.5c0.2,1.2,0.6,2.2,0.8,3.4c0,0.2,0.1,0.3,0.1,0.5v0.4c0,1.4-1.4,2-2.4,1.6
	c-0.3-0.1-0.5-0.1-0.8,0C135.9,253.8,135.4,253.7,134.9,253.5z M145.6,269.6c0,0.6-0.5,1-1.1,0.9c-1.6-0.2-3.5-0.5-5.9-0.7
	c-0.5,0-0.9-0.5-0.9-1c0-0.3,0-0.6,0-0.8c0-3.1-0.1-6.2-0.2-9.3c0-0.5,0.4-1,1-1c2,0,4.1,0,6.2,0.1c0.5,0,0.9,0.4,0.9,0.9
	C145.8,262.4,145.9,266,145.6,269.6z M148,252.6c-0.4-0.2-0.8-0.3-1.2-0.1c-1.3,0.7-3.3-0.3-2.6-1.9c1.2-2.8,0.1-7,2.8-9.1
	c1.9-1.4,4,0,5,1.8c0.6,1.1,0.8,2.3,0.8,3.6c0,1-0.3,2.3,0.2,3.2c0.9,1.6-0.9,3-2.2,2.5c-0.3-0.1-0.7-0.1-1,0.1
	C149.2,253,148.5,252.9,148,252.6z M158.2,270.1c-1,0.3-2.1,0.6-3.1,0.8c-2,0.3-3.6,0.4-5.1,0.3c-0.5,0-0.9-0.5-0.9-1
	c0.3-3.8,0.2-7.6,0.1-11.4c0-0.5,0.4-1,0.9-1c2.3,0,4.3-0.1,5.6-0.2c0.3,0,0.7-0.1,1-0.1c0.5-0.1,1,0.2,1.1,0.7
	c0.6,2.3,1.2,4.6,1.2,7.1c0,1.4-0.1,2.8-0.3,4.1C158.7,269.7,158.5,270,158.2,270.1z M164.2,248.9c-0.3,0.2-0.7,0.2-1.1,0.2
	c-0.5,0.4-1.3,0.5-1.8,0.2c-0.7,0.9-2.2,1.1-2.9-0.2c-1-1.9-0.8-5.9,1.2-7.1c1.4-0.9,3-0.2,3.9,1.1c0.4,0.6,0.7,1.4,0.9,2.1
	c0.1,0.3,0.2,0.7,0.4,1c0.1,0.1,0.4,0.9,0.1,0.4C165.2,247.3,165.1,248.4,164.2,248.9z M168.8,259.4c0.3,1.2,0.5,2.4,0.7,3.6
	c0.1,0.3-0.1,0.7-0.4,0.9c-1.5,1.1-3.2,2.4-5.1,3.5c-0.7,0.4-1.5-0.1-1.4-0.9c0,0,0,0,0,0c0.1-2.2,0-4.4-0.4-6.6
	c-0.2-0.9-0.4-1.9-0.7-2.8c-0.2-0.5,0.1-1,0.6-1.2c1.3-0.5,2.6-1.1,3.8-1.7c0.5-0.2,1.1,0,1.3,0.5
	C167.7,256.2,168.4,257.7,168.8,259.4z M168.9,190.7l18.7,5.8c0.7,0.2,0.9,1.2,0.2,1.6l-12.3,8.5c-0.5,0.3-1.1,0.1-1.3-0.4
	l-6.4-14.3C167.5,191.2,168.2,190.5,168.9,190.7z M179.1,269.8l-6.1,18.1c-0.1,0.3-0.4,0.5-0.7,0.6l-12.4,2.6
	c-0.7,0.2-1.3-0.6-1-1.2l6.3-13.6c0.1-0.2,0.2-0.3,0.4-0.4l12.2-7.2C178.6,268.3,179.4,269,179.1,269.8z M185.1,242.8
	c-2.8,8.6-8.1,14.4-10.8,16.9c-0.9,0.8-1.9-0.4-2.1-1.2c-0.4-1.7-1.1-3.3-1.8-4.9c-0.1-0.3-0.2-2,0.1-2.1c0.4-0.3,0.8-0.6,1.1-0.9
	c2.3-2.3-0.4-5.7-1.2-9.3s2.3-8.4,2.8-14.6c0.5-6.2,3.6-9.4,16.5-15.1C190.8,220.9,188.3,232.9,185.1,242.8z M205.5,159.8
	c-1.4,6.6-2.8,18-8.1,21.8c-5.2,3.8-10.1,6.6-19.4,4c-9.3-2.6-24-10.9-26.4-16.4c-2.4-5.5-2.8-20.6-1.4-27.8c1.8-9.1,10.9-10,24-8.1
	c13,1.9,21.6,5.9,25.6,9.3C203.8,146,206.9,153.1,205.5,159.8z M209.8,133.2c0,0.6-0.7,1-1.2,0.7l-16.4-10.6
	c-0.2-0.2-0.4-0.4-0.4-0.7l0.9-12.2c0-0.5,0.6-0.9,1.1-0.7l15.5,5.7c0.3,0.1,0.5,0.4,0.5,0.7V133.2z M210.7,91.3l-2.7,12.1
	c-0.1,0.5-0.7,0.8-1.2,0.5l-10.1-6c-0.3-0.2-0.4-0.5-0.4-0.8l2.2-12.9c0.1-0.6,0.7-0.8,1.2-0.5l10.6,6.8
	C210.7,90.7,210.8,91,210.7,91.3z"/>
</svg>
